<svg xmlns="http://www.w3.org/2000/svg" xmlns:xlink="http://www.w3.org/1999/xlink" width="165" height="40" viewBox="0 0 165 40"><defs><linearGradient id="a" x1="0.5" x2="0.5" y2="1" gradientUnits="objectBoundingBox"><stop offset="0" stop-color="#f93"/><stop offset="1" stop-color="#ff7833"/></linearGradient></defs><rect width="163" height="38" rx="11" transform="translate(1 1)" fill="#303333" stroke="#a6a6a6" stroke-miterlimit="10" stroke-width="2"/><path d="M32.65,29.68a5.652,5.652,0,0,1-1.68,2.19,5.387,5.387,0,0,1-1.84.96,11.335,11.335,0,0,1-3.16.33H14.19a11.38,11.38,0,0,1-3.16-.33,5.387,5.387,0,0,1-1.84-.96,5.52,5.52,0,0,1-1.67-2.19A10.346,10.346,0,0,1,7,25.97V14.19a10.268,10.268,0,0,1,.52-3.7,5.476,5.476,0,0,1,1.67-2.2,5.566,5.566,0,0,1,1.84-.96A11.38,11.38,0,0,1,14.19,7H25.97a11.335,11.335,0,0,1,3.16.33,5.58,5.58,0,0,1,3.52,3.16,10.235,10.235,0,0,1,.51,3.7V25.97A10.312,10.312,0,0,1,32.65,29.68Zm0,0" fill-rule="evenodd" fill="url(#a)"/><path d="M47.86,17.32c0-2.28-1.48-3.56-4.07-3.56H40.4V26h1.7V20.92h.97L46.85,26h1.91v-.23l-3.84-5.01A3.345,3.345,0,0,0,47.86,17.32Zm-1.73-.01a1.989,1.989,0,0,1-2.23,2.21H42.1V15.18h1.62c1.44,0,2.41.67,2.41,2.13Zm3.78,7.83a6,6,0,0,0,3.71,1.13c2.34,0,3.99-1.13,3.99-3.44,0-1.44-.86-2.61-3.17-3.85-1.99-1.08-2.48-1.58-2.48-2.41,0-.96.61-1.6,2.18-1.6a4.925,4.925,0,0,1,2.81,1.02l.39-1.47a5.766,5.766,0,0,0-3.24-1.03c-2.63,0-3.83,1.64-3.83,3.2,0,1.66,1.02,2.36,3.42,3.77,1.58.93,2.18,1.45,2.18,2.46,0,.97-.58,1.86-2.24,1.86a5.249,5.249,0,0,1-3.29-1.21Zm9,0a6,6,0,0,0,3.71,1.13c2.34,0,3.99-1.13,3.99-3.44,0-1.44-.86-2.61-3.17-3.85-1.99-1.08-2.48-1.58-2.48-2.41,0-.96.61-1.6,2.18-1.6a4.925,4.925,0,0,1,2.81,1.02l.39-1.47a5.766,5.766,0,0,0-3.24-1.03c-2.63,0-3.83,1.64-3.83,3.2,0,1.66,1.02,2.36,3.42,3.77,1.58.93,2.18,1.45,2.18,2.46,0,.97-.58,1.86-2.24,1.86a5.249,5.249,0,0,1-3.29-1.21ZM79.54,13.76H72.8V26h1.7V20.37H79V18.89H74.5V15.24h5.04Zm7.59,8.66a5.385,5.385,0,0,0,.18-1.5,3.048,3.048,0,0,0-3.11-3.24c-2.11,0-3.71,1.86-3.71,4.5,0,2.88,1.71,4.07,3.65,4.07a3.966,3.966,0,0,0,2.69-.92l-.31-1.29h-.05a3.329,3.329,0,0,1-2.09.86c-1.23,0-2.23-.59-2.23-2.48Zm-4.91-1.15a2.083,2.083,0,0,1,1.94-2.25c.92,0,1.77.82,1.55,2.25Zm13.01,1.15a5.385,5.385,0,0,0,.18-1.5,3.048,3.048,0,0,0-3.11-3.24c-2.11,0-3.71,1.86-3.71,4.5,0,2.88,1.71,4.07,3.65,4.07a3.966,3.966,0,0,0,2.69-.92l-.31-1.29h-.05a3.329,3.329,0,0,1-2.09.86c-1.23,0-2.23-.59-2.23-2.48Zm-4.91-1.15a2.083,2.083,0,0,1,1.94-2.25c.92,0,1.77.82,1.55,2.25Zm12.04,3.96.34.77h1.19V13.54l-1.62.22v4.48h-.09a2.525,2.525,0,0,0-1.66-.56c-2.39,0-3.83,2.06-3.83,4.5,0,2.61,1.33,4.07,3.17,4.07a3.407,3.407,0,0,0,2.43-1.02Zm-2.05-.42c-1.14,0-1.96-.9-1.96-2.73,0-1.8.81-2.99,2.26-2.99a2.269,2.269,0,0,1,1.66.65v4.19a2.607,2.607,0,0,1-1.96.88Zm0,0" fill="#fff"/><path d="M12,24a5,5,0,0,1,5,5H12Zm0,0" fill="#fff"/><path d="M11.75,19.5a9.756,9.756,0,0,1,9.75,9.75" fill="none" stroke="#fff" stroke-miterlimit="10" stroke-width="3"/><path d="M11.75,13.5A15.748,15.748,0,0,1,27.5,29.25" fill="none" stroke="#fff" stroke-miterlimit="10" stroke-width="3"/></svg>