<svg xmlns="http://www.w3.org/2000/svg" width="165" height="40" viewBox="0 0 165 40"><rect width="163" height="38" rx="11" transform="translate(1 1)" fill="#303333" stroke="#a6a6a6" stroke-miterlimit="10" stroke-width="2"/><path d="M42.96,14.66H39.24V8.69h.92v5.12h2.8Zm0,0" fill="#fff"/><path d="M44.03,8.83a.556.556,0,0,1,.58-.55.546.546,0,1,1,0,1.09A.554.554,0,0,1,44.03,8.83Zm.14,1.33h.88v4.5h-.88Zm0,0" fill="#fff"/><path d="M48.13,10.07c1.01,0,1.68.47,1.76,1.27h-.85c-.08-.33-.4-.55-.91-.55s-.87.24-.87.59c0,.27.23.44.71.55l.75.18c.86.19,1.26.56,1.26,1.22,0,.85-.79,1.42-1.87,1.42s-1.77-.49-1.84-1.28h.88a.935.935,0,0,0,.98.56c.56,0,.95-.25.95-.61,0-.27-.21-.44-.66-.55l-.79-.18c-.85-.2-1.25-.59-1.25-1.26,0-.8.73-1.36,1.75-1.36Zm0,0" fill="#fff"/><path d="M52.35,9.04v1.14h.97v.75h-.97v2.31c0,.47.19.68.63.68.14,0,.22-.01.34-.02v.74a3.373,3.373,0,0,1-.48.05c-.99,0-1.38-.35-1.38-1.22V10.93h-.72v-.75h.72V9.04Zm0,0" fill="#fff"/><path d="M58.25,13.45a1.829,1.829,0,0,1-1.95,1.3,2.05,2.05,0,0,1-2.08-2.33,2.077,2.077,0,0,1,2.08-2.35c1.25,0,2.01.86,2.01,2.27v.31H55.13v.05a1.191,1.191,0,0,0,1.2,1.29,1.089,1.089,0,0,0,1.07-.54Zm-3.12-1.46H57.4a1.085,1.085,0,0,0-1.11-1.16A1.148,1.148,0,0,0,55.13,11.99Zm0,0" fill="#fff"/><path d="M59.5,10.16h.86v.71h.06a1.355,1.355,0,0,1,1.35-.8c1,0,1.55.6,1.55,1.68v2.91h-.88V11.97c0-.72-.32-1.08-.98-1.08a1.028,1.028,0,0,0-1.07,1.14v2.63H59.5Zm0,0" fill="#fff"/><path d="M66.92,12.41a2.13,2.13,0,1,1,4.24,0,2.13,2.13,0,1,1-4.24,0Zm3.33,0c0-.98-.44-1.55-1.21-1.55s-1.2.57-1.2,1.55.43,1.55,1.2,1.55S70.25,13.39,70.25,12.41Zm0,0" fill="#fff"/><path d="M72.36,10.16h.85v.71h.07a1.35,1.35,0,0,1,1.34-.8c1.01,0,1.56.6,1.56,1.68v2.91h-.89V11.97c0-.72-.31-1.08-.97-1.08a1.023,1.023,0,0,0-1.07,1.14v2.63h-.89Zm0,0" fill="#fff"/><text transform="translate(38 32)" fill="#fff" font-size="16" font-family="HelveticaNeue, Helvetica Neue"><tspan x="0" y="0">Spotify</tspan></text><circle cx="9.5" cy="9.5" r="9.5" transform="translate(11 11)" fill="#1dd15d"/><path d="M20.717,0a5.452,5.452,0,0,1,5.452,5.452V20.717a5.452,5.452,0,0,1-5.452,5.452H5.452A5.452,5.452,0,0,1,0,20.717V5.452A5.452,5.452,0,0,1,5.452,0ZM13.084,4.361a8.723,8.723,0,1,0,8.723,8.723A8.723,8.723,0,0,0,13.084,4.361Zm4,12.582a.543.543,0,0,1-.748.181,10.036,10.036,0,0,0-7.663-.842.543.543,0,1,1-.242-1.059c3.323-.76,6.174-.433,8.473.972A.544.544,0,0,1,17.085,16.943Zm1.067-2.375a.681.681,0,0,1-.936.224,11.448,11.448,0,0,0-8.692-1.016.68.68,0,0,1-.395-1.3,12.732,12.732,0,0,1,9.8,1.159.681.681,0,0,1,.224.936Zm.092-2.474c-2.811-1.669-7.449-1.823-10.134-1.009a.816.816,0,1,1-.473-1.561c3.081-.936,8.2-.755,11.44,1.167a.816.816,0,1,1-.833,1.4Z" transform="translate(7 7)" fill-rule="evenodd"/></svg>