<svg xmlns="http://www.w3.org/2000/svg" xmlns:xlink="http://www.w3.org/1999/xlink" width="165" height="40" viewBox="0 0 165 40"><defs><linearGradient id="a" x1="0.5" x2="0.5" y2="1" gradientUnits="objectBoundingBox"><stop offset="0" stop-color="#f93"/><stop offset="1" stop-color="#ff7833"/></linearGradient><linearGradient id="b" x1="0.5" y1="1" x2="0.5" gradientUnits="objectBoundingBox"><stop offset="0" stop-color="#292e33"/><stop offset="1" stop-color="#434e59"/></linearGradient></defs><rect width="163" height="38" rx="11" transform="translate(1 1)" fill="#303333" stroke="#a6a6a6" stroke-miterlimit="10" stroke-width="2"/><path d="M32.65,29.68a5.652,5.652,0,0,1-1.68,2.19,5.387,5.387,0,0,1-1.84.96,11.335,11.335,0,0,1-3.16.33H14.19a11.38,11.38,0,0,1-3.16-.33,5.387,5.387,0,0,1-1.84-.96,5.52,5.52,0,0,1-1.67-2.19A10.346,10.346,0,0,1,7,25.97V14.19a10.268,10.268,0,0,1,.52-3.7,5.476,5.476,0,0,1,1.67-2.2,5.566,5.566,0,0,1,1.84-.96A11.38,11.38,0,0,1,14.19,7H25.97a11.335,11.335,0,0,1,3.16.33,5.58,5.58,0,0,1,3.52,3.16,10.235,10.235,0,0,1,.51,3.7V25.97A10.312,10.312,0,0,1,32.65,29.68Zm0,0" fill-rule="evenodd" fill="url(#a)"/><circle cx="10" cy="10" r="10" transform="translate(10 10)" fill="#fff"/><path d="M20,31A11,11,0,1,1,31,20,10.994,10.994,0,0,1,20,31Zm0-4.33.85-.85L20,22.66l-.85,3.16Zm-1.05-.08-.42,1.54.99-.98Zm2.1,0-.56.56.98.98Zm.76,2.86L20,27.64l-1.81,1.81h.01a9.425,9.425,0,0,0,3.59,0ZM20,10.38v-.01a9.624,9.624,0,0,0-3.14,18.72l2.04-7.63a1.832,1.832,0,1,1,2.56-.36,2.044,2.044,0,0,1-.36.36l2.05,7.63h-.01A9.623,9.623,0,0,0,20,10.37Zm0,0" fill-rule="evenodd" fill="url(#b)"/><path d="M26.29,24.77l-.01.01a.7.7,0,0,1-.96.12h.01a.641.641,0,0,1-.16-.89l.02-.02.03-.05a7.068,7.068,0,0,0-.07-7.99l.04.06a.626.626,0,0,1,.11-.89c.01-.01.02-.02.03-.02v-.01a.715.715,0,0,1,.96.14,8.334,8.334,0,0,1,0,9.54Zm-3.35-1.8-.01-.01a.781.781,0,0,1,.04-1.04,2.991,2.991,0,0,0,0-3.84.793.793,0,0,1-.04-1.05h.01a.651.651,0,0,1,.92-.08.12.12,0,0,1,.05.05l.03.02a4.531,4.531,0,0,1-.06,6.01l.03-.03a.661.661,0,0,1-.93.02.218.218,0,0,0-.04-.05Zm-5.88,0a.66.66,0,0,1-.92.08c-.02-.02-.04-.03-.05-.05l-.03-.03a4.531,4.531,0,0,1,.06-6.01l-.03.04a.661.661,0,0,1,.93-.02c.01.02.03.03.04.05h.01a.793.793,0,0,1-.04,1.05,2.991,2.991,0,0,0,0,3.84.781.781,0,0,1,.04,1.04Zm-2.39,1.94a.715.715,0,0,1-.96-.14,8.334,8.334,0,0,1,0-9.54l.01-.01a.7.7,0,0,1,.96-.12h-.01a.641.641,0,0,1,.16.89l-.02.02-.03.05a7.068,7.068,0,0,0,.07,7.99l-.04-.06a.626.626,0,0,1-.11.89c-.01.01-.02.02-.03.02Zm0,0" fill="#f93" fill-rule="evenodd"/><path d="M42.96,14.66H39.24V8.69h.92v5.12h2.8Zm0,0" fill="#fff"/><path d="M44.03,8.83a.556.556,0,0,1,.58-.55.546.546,0,1,1,0,1.09A.554.554,0,0,1,44.03,8.83Zm.14,1.33h.88v4.5h-.88Zm0,0" fill="#fff"/><path d="M48.13,10.07c1.01,0,1.68.47,1.76,1.27h-.85c-.08-.33-.4-.55-.91-.55s-.87.24-.87.59c0,.27.23.44.71.55l.75.18c.86.19,1.26.56,1.26,1.22,0,.85-.79,1.42-1.87,1.42s-1.77-.49-1.84-1.28h.88a.935.935,0,0,0,.98.56c.56,0,.95-.25.95-.61,0-.27-.21-.44-.66-.55l-.79-.18c-.85-.2-1.25-.59-1.25-1.26,0-.8.73-1.36,1.75-1.36Zm0,0" fill="#fff"/><path d="M52.35,9.04v1.14h.97v.75h-.97v2.31c0,.47.19.68.63.68.14,0,.22-.01.34-.02v.74a3.373,3.373,0,0,1-.48.05c-.99,0-1.38-.35-1.38-1.22V10.93h-.72v-.75h.72V9.04Zm0,0" fill="#fff"/><path d="M58.25,13.45a1.829,1.829,0,0,1-1.95,1.3,2.05,2.05,0,0,1-2.08-2.33,2.077,2.077,0,0,1,2.08-2.35c1.25,0,2.01.86,2.01,2.27v.31H55.13v.05a1.191,1.191,0,0,0,1.2,1.29,1.089,1.089,0,0,0,1.07-.54Zm-3.12-1.46H57.4a1.085,1.085,0,0,0-1.11-1.16A1.148,1.148,0,0,0,55.13,11.99Zm0,0" fill="#fff"/><path d="M59.5,10.16h.86v.71h.06a1.355,1.355,0,0,1,1.35-.8c1,0,1.55.6,1.55,1.68v2.91h-.88V11.97c0-.72-.32-1.08-.98-1.08a1.028,1.028,0,0,0-1.07,1.14v2.63H59.5Zm0,0" fill="#fff"/><path d="M66.92,12.41a2.13,2.13,0,1,1,4.24,0,2.13,2.13,0,1,1-4.24,0Zm3.33,0c0-.98-.44-1.55-1.21-1.55s-1.2.57-1.2,1.55.43,1.55,1.2,1.55S70.25,13.39,70.25,12.41Zm0,0" fill="#fff"/><path d="M72.36,10.16h.85v.71h.07a1.35,1.35,0,0,1,1.34-.8c1.01,0,1.56.6,1.56,1.68v2.91h-.89V11.97c0-.72-.31-1.08-.97-1.08a1.023,1.023,0,0,0-1.07,1.14v2.63h-.89Zm0,0" fill="#fff"/><text transform="translate(37 32)" fill="#fff" font-size="16" font-family="HelveticaNeue, Helvetica Neue"><tspan x="0" y="0">Overcast</tspan></text></svg>