<svg xmlns="http://www.w3.org/2000/svg" xmlns:xlink="http://www.w3.org/1999/xlink" width="165" height="40" viewBox="0 0 165 40"><defs><linearGradient id="a" x1="0.5" x2="0.5" y2="1" gradientUnits="objectBoundingBox"><stop offset="0" stop-color="#f452ff"/><stop offset="1" stop-color="#832bc1"/></linearGradient></defs><rect width="163" height="38" rx="11" transform="translate(1 1)" fill="#303333" stroke="#a6a6a6" stroke-miterlimit="10" stroke-width="2"/><path d="M32.18,29.23a5.311,5.311,0,0,1-1.61,2.11,5.072,5.072,0,0,1-1.77.92,10.926,10.926,0,0,1-3.04.32H14.44a10.881,10.881,0,0,1-3.04-.32,5.218,5.218,0,0,1-1.78-.92,5.406,5.406,0,0,1-1.61-2.11,9.9,9.9,0,0,1-.49-3.57V14.34a9.9,9.9,0,0,1,.49-3.57A5.406,5.406,0,0,1,9.62,8.66a5.218,5.218,0,0,1,1.78-.92,10.881,10.881,0,0,1,3.04-.32H25.76a10.926,10.926,0,0,1,3.04.32,5.072,5.072,0,0,1,1.77.92,5.311,5.311,0,0,1,1.61,2.11,9.928,9.928,0,0,1,.5,3.57V25.66a9.928,9.928,0,0,1-.5,3.57Zm0,0" fill-rule="evenodd" fill="url(#a)"/><path d="M32.18,29.23a5.311,5.311,0,0,1-1.61,2.11,5.072,5.072,0,0,1-1.77.92,10.926,10.926,0,0,1-3.04.32H14.44a10.881,10.881,0,0,1-3.04-.32,5.218,5.218,0,0,1-1.78-.92,5.406,5.406,0,0,1-1.61-2.11,9.9,9.9,0,0,1-.49-3.57V14.34a9.9,9.9,0,0,1,.49-3.57A5.406,5.406,0,0,1,9.62,8.66a5.218,5.218,0,0,1,1.78-.92,10.881,10.881,0,0,1,3.04-.32H25.76a10.926,10.926,0,0,1,3.04.32,5.072,5.072,0,0,1,1.77.92,5.311,5.311,0,0,1,1.61,2.11,9.928,9.928,0,0,1,.5,3.57V25.66a9.928,9.928,0,0,1-.5,3.57Zm0,0" fill="none"/><path d="M21.92,21.88a2.5,2.5,0,0,0-1.82-.65,2.5,2.5,0,0,0-1.82.65,1.138,1.138,0,0,0-.34.73,9.564,9.564,0,0,0,.04,1.9c.07.77.19,1.8.36,2.85a11.209,11.209,0,0,0,.29,1.43,1.427,1.427,0,0,0,1.47.88,1.427,1.427,0,0,0,1.47-.88,11.209,11.209,0,0,0,.29-1.43c.17-1.05.29-2.08.36-2.85a9.564,9.564,0,0,0,.04-1.9,1.189,1.189,0,0,0-.34-.73Zm-3.88-3.55a2.06,2.06,0,1,0,2.06-2.06A2.057,2.057,0,0,0,18.04,18.33Zm2.04-8.12a8.849,8.849,0,0,0-2.91,17.2.12.12,0,0,0,.16-.13c-.05-.31-.09-.61-.13-.91a.285.285,0,0,0-.18-.24,7.72,7.72,0,1,1,6.16,0,.319.319,0,0,0-.18.24c-.04.3-.08.6-.13.91a.123.123,0,0,0,.16.13,8.849,8.849,0,0,0-2.95-17.2Zm-.16,4.06a4.792,4.792,0,0,1,3.47,8.28.365.365,0,0,0-.12.29,8.569,8.569,0,0,1-.01,1.01.118.118,0,0,0,.18.11,5.926,5.926,0,1,0-6.67,0,.118.118,0,0,0,.18-.11,8.569,8.569,0,0,1-.01-1.01.391.391,0,0,0-.11-.29,4.733,4.733,0,0,1-1.52-3.62,4.8,4.8,0,0,1,4.61-4.66Zm0,0" fill="#fff"/><path d="M42.96,14.66H39.24V8.69h.92v5.12h2.8Zm0,0" fill="#fff"/><path d="M44.03,8.83a.556.556,0,0,1,.58-.55.546.546,0,1,1,0,1.09A.554.554,0,0,1,44.03,8.83Zm.14,1.33h.88v4.5h-.88Zm0,0" fill="#fff"/><path d="M48.13,10.07c1.01,0,1.68.47,1.76,1.27h-.85c-.08-.33-.4-.55-.91-.55s-.87.24-.87.59c0,.27.23.44.71.55l.75.18c.86.19,1.26.56,1.26,1.22,0,.85-.79,1.42-1.87,1.42s-1.77-.49-1.84-1.28h.88a.935.935,0,0,0,.98.56c.56,0,.95-.25.95-.61,0-.27-.21-.44-.66-.55l-.79-.18c-.85-.2-1.25-.59-1.25-1.26,0-.8.73-1.36,1.75-1.36Zm0,0" fill="#fff"/><path d="M52.35,9.04v1.14h.97v.75h-.97v2.31c0,.47.19.68.63.68.14,0,.22-.01.34-.02v.74a3.373,3.373,0,0,1-.48.05c-.99,0-1.38-.35-1.38-1.22V10.93h-.72v-.75h.72V9.04Zm0,0" fill="#fff"/><path d="M58.25,13.45a1.829,1.829,0,0,1-1.95,1.3,2.05,2.05,0,0,1-2.08-2.33,2.077,2.077,0,0,1,2.08-2.35c1.25,0,2.01.86,2.01,2.27v.31H55.13v.05a1.191,1.191,0,0,0,1.2,1.29,1.089,1.089,0,0,0,1.07-.54Zm-3.12-1.46H57.4a1.085,1.085,0,0,0-1.11-1.16A1.148,1.148,0,0,0,55.13,11.99Zm0,0" fill="#fff"/><path d="M59.5,10.16h.86v.71h.06a1.355,1.355,0,0,1,1.35-.8c1,0,1.55.6,1.55,1.68v2.91h-.88V11.97c0-.72-.32-1.08-.98-1.08a1.028,1.028,0,0,0-1.07,1.14v2.63H59.5Zm0,0" fill="#fff"/><path d="M66.92,12.41a2.13,2.13,0,1,1,4.24,0,2.13,2.13,0,1,1-4.24,0Zm3.33,0c0-.98-.44-1.55-1.21-1.55s-1.2.57-1.2,1.55.43,1.55,1.2,1.55S70.25,13.39,70.25,12.41Zm0,0" fill="#fff"/><path d="M72.36,10.16h.85v.71h.07a1.35,1.35,0,0,1,1.34-.8c1.01,0,1.56.6,1.56,1.68v2.91h-.89V11.97c0-.72-.31-1.08-.97-1.08a1.023,1.023,0,0,0-1.07,1.14v2.63h-.89Zm0,0" fill="#fff"/><text transform="translate(37 32)" fill="#fff" font-size="16" font-family="HelveticaNeue, Helvetica Neue"><tspan x="0" y="0">Apple Podcast</tspan></text></svg>